<svg width="32" height="32" viewBox="0 0 32 32" fill="none" xmlns="http://www.w3.org/2000/svg">
<path d="M3.665 28.935C4.008 29.2 4.995 27.493 8.715 27.265C12.698 27.02 17.105 30.187 23.142 30.187C28.495 30.187 31.267 27.567 31.078 27.15C30.95 26.873 28.838 26.363 26.408 25.1C23.485 23.582 20.408 22.062 18.055 18.645C16.547 16.458 15.473 13.938 16.955 11.963C18.435 9.987 22.195 10.9 22.195 10.9L17.07 5.35699L7.313 8.01699L2.375 20.395L2.908 26.698L3.665 28.935Z" fill="url(#paint0_radial_4_206)"/>
<path d="M14.815 9.028C14.815 9.028 16.008 9.408 17.605 10.24C20.262 11.627 21.872 13.81 23.515 13.945C25.22 14.082 26.093 13.1 25.72 11.05C25.372 9.137 22.55 6.892 22.55 6.892C22.55 6.892 25.128 7.378 25.128 5.9C25.128 4.383 23.738 3.652 21.55 2.9C20.093 2.4 16.172 1.29 10.918 3.28C8.658 4.135 5.898 5.715 3.802 8.743C1.062 12.703 0.507001 17.853 1.027 21.763C1.657 26.485 3.622 28.92 3.67 28.94C3.718 28.96 3.975 23.387 6.172 20.97C8.045 18.91 9.96 19.755 12.235 19.642C14.918 19.51 16.115 16.74 14.068 14.628C12.31 12.813 9.398 12.975 9.398 12.975C9.398 12.975 10.363 12.59 12.195 12.425C14.3 12.232 14.715 11.01 14.865 10.552C15.197 9.542 14.815 9.028 14.815 9.028Z" fill="#1B6DA4"/>
<path d="M9.53703 9.07501C9.39703 8.25001 11.827 7.50501 14.373 7.90501C18.333 8.52701 21.468 12.14 22.798 12.668C24.758 13.448 25.448 11.845 24.465 10.11C23.453 8.31701 20.773 6.79201 20.872 6.20001C21.052 5.14701 23.797 6.75001 23.965 5.58001C24.078 4.80501 22.028 3.69001 20.08 3.19201C18.513 2.79201 15.22 2.30001 10.67 4.28201C4.75503 6.86501 2.19703 12.002 1.77503 17.385C1.37503 22.49 3.32503 26.295 3.32503 26.295C3.32503 26.295 3.45703 22.485 5.36703 20.387C6.76203 18.857 8.55203 18.282 10.495 18.652C13.735 19.272 15.148 16.93 13.59 15.237C12.57 14.13 11.262 13.785 9.91003 13.74C7.57203 13.665 6.31503 14.447 6.24703 14.182C6.14703 13.78 7.41503 12.847 9.02203 12.177C11.137 11.297 13.69 11.9 14.09 10.13C14.285 9.26701 13.797 8.79501 12.403 8.69201C10.64 8.56501 9.54703 9.13501 9.53703 9.07501Z" fill="white"/>
<defs>
<radialGradient id="paint0_radial_4_206" cx="0" cy="0" r="1" gradientUnits="userSpaceOnUse" gradientTransform="translate(14.963 -0.351004) scale(28.4267 28.4267)">
<stop offset="0.423" stop-color="#45D6F0"/>
<stop offset="0.518" stop-color="#41CDE9"/>
<stop offset="0.674" stop-color="#37B4D7"/>
<stop offset="0.87" stop-color="#278BBA"/>
<stop offset="1" stop-color="#1B6DA4"/>
</radialGradient>
</defs>
</svg>
