<svg width="13" height="20" viewBox="0 0 13 20" fill="none" xmlns="http://www.w3.org/2000/svg">
<path d="M12 7.33935L11.9267 10.4439C10.4363 12.9025 6.59044 12.2902 7.25992 9.00733H6.24837C6.20439 14.2812 -0.0994749 11.9721 1.17107 7.33935C2.40252 7.45987 3.85877 7.16099 5.04624 7.35864C5.63753 7.45505 6.03824 8.048 6.75659 8.048C7.47494 8.048 7.88542 7.44541 8.46694 7.35864C9.58111 7.19473 10.8663 7.43577 12.0049 7.33935H12Z" fill="#F70067"/>
<path d="M6.5 1C3.46243 1 1 3.23858 1 6H12C12 3.23858 9.53757 1 6.5 1Z" fill="#F70067"/>
<path d="M2.54124 13.5L10.4588 13.5C10.1837 15.1578 8.56223 16.5 6.5 16.5C4.43777 16.5 2.81633 15.1578 2.54124 13.5Z" stroke="#F70067"/>
</svg>
