<svg width="12" height="14" viewBox="0 0 12 14" fill="none" xmlns="http://www.w3.org/2000/svg">
<path d="M6.50785 0.68263C6.37368 0.545547 6.19285 0.466797 6.00035 0.466797C5.80785 0.466797 5.62702 0.545547 5.49285 0.68263L0.592849 5.81596C0.324516 6.09596 0.336183 6.5393 0.616183 6.80471C0.896183 7.07013 1.33952 7.06138 1.60493 6.78138L5.30035 2.91388V12.8335C5.30035 13.2214 5.61243 13.5335 6.00035 13.5335C6.38827 13.5335 6.70035 13.2214 6.70035 12.8335V2.91388L10.3929 6.7843C10.6612 7.0643 11.1016 7.07305 11.3816 6.80763C11.6616 6.54221 11.6704 6.09888 11.4049 5.81888L6.50493 0.685547L6.50785 0.68263Z" fill="white"/>
</svg>
