<svg width="265" height="131" viewBox="0 0 265 131" fill="none" xmlns="http://www.w3.org/2000/svg">
<path d="M121.413 130.829L132.852 128.684C135.206 128.243 137.323 126.972 138.818 125.102L141.93 121.212C142.309 120.738 142.731 120.3 143.189 119.902L146.595 116.951C148.76 115.074 151.626 114.217 154.466 114.595L154.968 114.662C156.629 114.884 158.208 115.519 159.56 116.511L164.383 120.048C164.794 120.349 165.181 120.681 165.541 121.041L167.58 123.08C168.837 124.337 170.407 125.237 172.127 125.685L179.945 127.725C180.646 127.908 181.365 128.014 182.09 128.041L219.615 129.466C220.204 129.489 220.793 129.459 221.377 129.378L240.706 126.681C241.565 126.561 242.405 126.33 243.204 125.993L257.816 119.84C259.879 118.972 261.605 117.412 262.692 115.455C263.222 114.5 263.6 113.451 263.795 112.376L263.873 111.946C264.279 109.715 263.914 107.413 262.839 105.416L262.195 104.22C261.411 102.763 261 101.134 261 99.4788V96.7321C261 95.5859 260.803 94.4482 260.417 93.3688L259.083 89.6312C258.697 88.5518 258.5 87.4141 258.5 86.2679V85.5913C258.5 83.8918 258.067 82.2204 257.242 80.7348L254.758 76.2652C253.933 74.7796 253.5 73.1082 253.5 71.4087V68.8275C253.5 67.9464 253.384 67.0691 253.154 66.2184L248.5 49L239.914 28.9667C239.639 28.3241 239.295 27.7131 238.889 27.1442C237.663 25.428 235.913 24.1566 233.901 23.5215L228.97 21.9642C227.996 21.6565 226.98 21.5 225.959 21.5H222.5H222.219C218.676 21.5 215.397 23.3754 213.6 26.4298L212.094 28.9903C211.699 29.6611 211.384 30.3758 211.156 31.1196L210.956 31.7687C210.038 34.7503 207.782 37.1329 204.855 38.2113L202.236 39.1762C200.766 39.7178 199.189 39.9064 197.633 39.7269L190.461 38.8994C188.22 38.6407 186.132 37.6317 184.536 36.0363L179.951 31.4514C178.994 30.4938 178.241 29.3516 177.738 28.0942L175.5 22.5L168.48 8.92882C168.161 8.31129 167.778 7.72876 167.338 7.19067L165.165 4.53478C164.073 3.20092 162.656 2.17176 161.05 1.54711L160.148 1.19663C156.677 -0.153491 152.742 0.537965 149.939 2.99091L142.5 9.5L139.587 11.4422C138.552 12.1319 137.336 12.5 136.093 12.5H135.605C133.413 12.5 131.426 13.7912 130.536 15.7947C130.183 16.5872 129.65 17.2861 128.979 17.8353L124.5 21.5L119.392 25.757C118.799 26.2507 118.152 26.6742 117.462 27.019L112.951 29.2743C111.99 29.7549 111.113 30.3875 110.353 31.1475L105.978 35.5219C105.329 36.1709 104.594 36.7274 103.793 37.1759L92.5 43.5L79.5 49L76.2881 50.2848C75.1069 50.7572 73.8464 51 72.5742 51H69.6238C67.5897 51 65.604 51.6203 63.9317 52.7781L61.1011 54.7377C60.3703 55.2436 59.5753 55.6499 58.7372 55.9457L51.5 58.5L14.3946 69.7725C12.8224 70.2501 11.3922 71.1078 10.2303 72.2697L8.5 74L3.5 79L2.47423 80.1723C0.879183 81.9952 0 84.3351 0 86.7573V91.4588C0 92.1511 0.071886 92.8415 0.214502 93.5189L1.23578 98.3699C1.72884 100.712 3.04556 102.8 4.94677 104.253L17.9373 114.187C18.6426 114.727 19.4166 115.17 20.2389 115.505L31.1883 119.966C32.0584 120.32 32.8743 120.795 33.6117 121.378L39.8005 126.264C41.2391 127.399 42.9622 128.118 44.7815 128.341L66.5 131H85H105H119.571C120.189 131 120.806 130.943 121.413 130.829Z" fill="#E8E8E8"/>
</svg>
