<svg width="30" height="30" viewBox="0 0 30 30" fill="none" xmlns="http://www.w3.org/2000/svg">
<mask id="mask0_814_3020" style="mask-type:alpha" maskUnits="userSpaceOnUse" x="0" y="0" width="30" height="30">
<rect width="30" height="30" fill="#D9D9D9"/>
</mask>
<g mask="url(#mask0_814_3020)">
<path d="M15 24.5672L14.0528 23.7116C12.0128 21.8478 10.3253 20.2525 8.99031 18.9256C7.65552 17.5985 6.60187 16.4282 5.82937 15.4147C5.05687 14.4011 4.51719 13.4841 4.21031 12.6634C3.90344 11.843 3.75 11.0177 3.75 10.1875C3.75 8.59771 4.2901 7.26281 5.37031 6.18281C6.45031 5.1026 7.78521 4.5625 9.375 4.5625C10.4744 4.5625 11.5056 4.84375 12.4688 5.40625C13.4319 5.96875 14.2756 6.78687 15 7.86062C15.7244 6.78687 16.5681 5.96875 17.5313 5.40625C18.4944 4.84375 19.5256 4.5625 20.625 4.5625C22.2148 4.5625 23.5497 5.1026 24.6297 6.18281C25.7099 7.26281 26.25 8.59771 26.25 10.1875C26.25 11.0177 26.0966 11.843 25.7897 12.6634C25.4828 13.4841 24.9431 14.4011 24.1706 15.4147C23.3981 16.4282 22.3484 17.5985 21.0216 18.9256C19.6947 20.2525 18.0032 21.8478 15.9472 23.7116L15 24.5672ZM15 22.875C17 21.0673 18.6458 19.5189 19.9375 18.2297C21.2292 16.9403 22.25 15.8217 23 14.8738C23.75 13.9258 24.2708 13.0861 24.5625 12.3547C24.8542 11.623 25 10.9006 25 10.1875C25 8.9375 24.5833 7.89583 23.75 7.0625C22.9167 6.22917 21.875 5.8125 20.625 5.8125C19.6298 5.8125 18.7116 6.09656 17.8703 6.66469C17.0289 7.23281 16.2756 8.08813 15.6106 9.23063H14.3894C13.7083 8.07208 12.9511 7.21271 12.1178 6.6525C11.2845 6.0925 10.3702 5.8125 9.375 5.8125C8.14104 5.8125 7.10333 6.22917 6.26188 7.0625C5.42063 7.89583 5 8.9375 5 10.1875C5 10.9006 5.14583 11.623 5.4375 12.3547C5.72917 13.0861 6.25 13.9258 7 14.8738C7.75 15.8217 8.77083 16.9363 10.0625 18.2175C11.3542 19.4988 13 21.0513 15 22.875Z" fill="#F70067"/>
</g>
</svg>
