<svg width="26" height="26" viewBox="0 0 26 26" fill="none" xmlns="http://www.w3.org/2000/svg">
<path d="M19.7235 5.86712L20.1331 6.27676C20.5563 6.69994 20.5563 7.38717 20.1331 7.81035L19.2292 8.71426L17.286 6.77103L18.1899 5.86712C18.6131 5.44395 19.3003 5.44395 19.7235 5.86712ZM10.7318 13.3252L16.5209 7.53613L18.4641 9.47936L12.675 15.2684C12.5329 15.4106 12.35 15.5122 12.1537 15.5596L9.93285 16.0708L10.4441 13.8465C10.4881 13.6502 10.5896 13.4674 10.7352 13.3252H10.7318ZM17.4248 5.09863L9.96671 12.5601C9.67895 12.8479 9.47921 13.2101 9.3878 13.6062L8.68025 16.6734C8.63962 16.8562 8.69379 17.0458 8.82582 17.1778C8.95785 17.3098 9.14744 17.364 9.33025 17.3234L12.3974 16.6158C12.7935 16.5244 13.1558 16.3247 13.4435 16.0369L20.9016 8.57546C21.748 7.7291 21.748 6.35801 20.9016 5.51165L20.492 5.09863C19.6456 4.25228 18.2745 4.25228 17.4282 5.09863H17.4248ZM7.04171 6.5002C5.54535 6.5002 4.33337 7.71217 4.33337 9.20853V18.9585C4.33337 20.4549 5.54535 21.6669 7.04171 21.6669H16.7917C18.2881 21.6669 19.5 20.4549 19.5 18.9585V14.6252C19.5 14.3273 19.2563 14.0835 18.9584 14.0835C18.6605 14.0835 18.4167 14.3273 18.4167 14.6252V18.9585C18.4167 19.8557 17.6888 20.5835 16.7917 20.5835H7.04171C6.14457 20.5835 5.41671 19.8557 5.41671 18.9585V9.20853C5.41671 8.31139 6.14457 7.58353 7.04171 7.58353H11.375C11.673 7.58353 11.9167 7.33978 11.9167 7.04186C11.9167 6.74395 11.673 6.5002 11.375 6.5002H7.04171Z" fill="#F70067"/>
</svg>
