<svg width="21" height="20" viewBox="0 0 21 20" fill="none" xmlns="http://www.w3.org/2000/svg">
<path d="M13.2461 0.382812C12.375 0.132812 11.4531 0 10.5 0C4.97656 0 0.5 4.47656 0.5 10C0.5 15.5234 4.97656 20 10.5 20C16.0234 20 20.5 15.5234 20.5 10C20.5 9.04688 20.3672 8.125 20.1172 7.25391L19.2266 8.24609C19.1836 8.29297 19.1445 8.33594 19.0977 8.37891C19.1953 8.90625 19.2461 9.44531 19.2461 10C19.2461 14.832 15.3281 18.75 10.4961 18.75C5.66406 18.75 1.75 14.832 1.75 10C1.75 5.16797 5.66797 1.25 10.5 1.25C11.0547 1.25 11.5977 1.30078 12.1211 1.39844C12.1641 1.35547 12.207 1.3125 12.2539 1.26953L13.2461 0.382812ZM11.2266 3.79297C10.9883 3.76562 10.7461 3.75 10.5 3.75C7.04688 3.75 4.25 6.54688 4.25 10C4.25 13.4531 7.04688 16.25 10.5 16.25C13.9531 16.25 16.75 13.4531 16.75 10C16.75 9.75391 16.7344 9.51172 16.707 9.27344C16.6016 9.26562 16.4961 9.25391 16.3906 9.23828L15.4141 9.07422C15.4687 9.375 15.5 9.68359 15.5 10C15.5 12.7617 13.2617 15 10.5 15C7.73828 15 5.5 12.7617 5.5 10C5.5 7.23828 7.73828 5 10.5 5C10.8164 5 11.125 5.03125 11.4258 5.08594L11.2617 4.10938C11.2422 4.00391 11.2305 3.89844 11.2266 3.79297ZM13.8398 7.54688L16.5898 8.00391C17.2266 8.10938 17.8711 7.88281 18.3008 7.39844L20.0156 5.46875C20.4727 4.95703 20.2422 4.14453 19.5859 3.94922L17.2539 3.25L16.5508 0.914062C16.3555 0.257812 15.543 0.0273437 15.0312 0.484375L13.1016 2.19922C12.6211 2.62891 12.3906 3.27344 12.4961 3.91016L12.9531 6.66016L10.0547 9.55859C9.8125 9.80078 9.8125 10.1992 10.0547 10.4414C10.2969 10.6836 10.6953 10.6836 10.9375 10.4414L13.8359 7.54297L13.8398 7.54688ZM14.9258 6.46094L16.9297 4.45703L18.7578 5.00391L17.3672 6.56641C17.2227 6.72656 17.0078 6.80469 16.7969 6.76953L14.9258 6.45703V6.46094ZM16.043 3.57422L14.0391 5.57812L13.7266 3.70703C13.6914 3.49609 13.7656 3.28125 13.9297 3.13672L15.4922 1.74609L16.0391 3.57422H16.043Z" fill="white"/>
</svg>
