<svg width="20" height="18" viewBox="0 0 20 18" fill="none" xmlns="http://www.w3.org/2000/svg">
<path d="M16.875 0.25C17.2188 0.25 17.5 0.53125 17.5 0.875V2.75H19.375C19.7188 2.75 20 3.03125 20 3.375C20 3.71875 19.7188 4 19.375 4H17.5V5.875C17.5 6.21875 17.2188 6.5 16.875 6.5C16.5312 6.5 16.25 6.21875 16.25 5.875V4H14.375C14.0312 4 13.75 3.71875 13.75 3.375C13.75 3.03125 14.0312 2.75 14.375 2.75H16.25V0.875C16.25 0.53125 16.5312 0.25 16.875 0.25ZM16.875 11.5C17.2188 11.5 17.5 11.7812 17.5 12.125V14H19.375C19.7188 14 20 14.2812 20 14.625C20 14.9688 19.7188 15.25 19.375 15.25H17.5V17.125C17.5 17.4688 17.2188 17.75 16.875 17.75C16.5312 17.75 16.25 17.4688 16.25 17.125V15.25H14.375C14.0312 15.25 13.75 14.9688 13.75 14.625C13.75 14.2812 14.0312 14 14.375 14H16.25V12.125C16.25 11.7812 16.5312 11.5 16.875 11.5ZM5.34375 7.45312L2.11719 8.94531L5.34375 10.4336C5.61328 10.5586 5.82812 10.7734 5.95312 11.043L7.44141 14.2695L8.92969 11.043C9.05469 10.7734 9.26953 10.5586 9.53906 10.4336L12.7656 8.94531L9.53906 7.45703C9.26953 7.33203 9.05469 7.11719 8.92969 6.84766L7.44141 3.62109L5.95312 6.84766C5.82812 7.11719 5.61328 7.33203 5.34375 7.45703V7.45312ZM4.82031 11.5703L0.363281 9.51172C0.140625 9.41016 0 9.1875 0 8.94531C0 8.70312 0.140625 8.48047 0.363281 8.37891L4.82031 6.32031L6.875 1.86328C6.97656 1.64063 7.19922 1.5 7.44141 1.5C7.68359 1.5 7.90625 1.64063 8.00781 1.86328L10.0664 6.32031L14.5234 8.375C14.7461 8.47656 14.8867 8.69922 14.8867 8.94141C14.8867 9.18359 14.7461 9.40625 14.5234 9.50781L10.0703 11.5703L8.01172 16.0234C7.91016 16.2461 7.6875 16.3867 7.44531 16.3867C7.20313 16.3867 6.98047 16.2461 6.87891 16.0234L4.82031 11.5703Z" fill="white"/>
</svg>
